<?xml version="1.0" encoding="UTF-8" standalone="no"?>
<svg
   xmlns:dc="http://purl.org/dc/elements/1.1/"
   xmlns:cc="http://creativecommons.org/ns#"
   xmlns:rdf="http://www.w3.org/1999/02/22-rdf-syntax-ns#"
   xmlns:svg="http://www.w3.org/2000/svg"
   xmlns="http://www.w3.org/2000/svg"
   xmlns:sodipodi="http://sodipodi.sourceforge.net/DTD/sodipodi-0.dtd"
   xmlns:inkscape="http://www.inkscape.org/namespaces/inkscape"
   width="136.9796mm"
   height="27.301899mm"
   viewBox="0 0 136.9796 27.301899"
   version="1.1"
   id="svg8"
   inkscape:version="1.0.1 (3bc2e813f5, 2020-09-07)"
   sodipodi:docname="CRSC_logo.svg">
  <defs
     id="defs2">
    <rect
       x="37.685001"
       y="71.8955"
       width="56.393871"
       height="43.030396"
       id="rect947" />
    <rect
       x="25.135418"
       y="68.980652"
       width="42.144344"
       height="31.561012"
       id="rect934" />
    <rect
       x="22.111607"
       y="62.082588"
       width="46.585567"
       height="16.914434"
       id="rect928" />
  </defs>
  <sodipodi:namedview
     id="base"
     pagecolor="#ffffff"
     bordercolor="#666666"
     borderopacity="1.0"
     inkscape:pageopacity="0.0"
     inkscape:pageshadow="2"
     inkscape:zoom="0.98994949"
     inkscape:cx="317.41975"
     inkscape:cy="-3.1442451"
     inkscape:document-units="mm"
     inkscape:current-layer="layer1"
     inkscape:document-rotation="0"
     showgrid="false"
     inkscape:window-width="1920"
     inkscape:window-height="1017"
     inkscape:window-x="1912"
     inkscape:window-y="-8"
     inkscape:window-maximized="1"
     fit-margin-top="0"
     fit-margin-left="0"
     fit-margin-right="0"
     fit-margin-bottom="0" />
  <metadata
     id="metadata5">
    <rdf:RDF>
      <cc:Work
         rdf:about="">
        <dc:format>image/svg+xml</dc:format>
        <dc:type
           rdf:resource="http://purl.org/dc/dcmitype/StillImage" />
        <dc:title />
      </cc:Work>
    </rdf:RDF>
  </metadata>
  <g
     inkscape:label="Layer 1"
     inkscape:groupmode="layer"
     id="layer1"
     transform="translate(-21.347782,-26.315335)">
    <ellipse
       style="opacity:0.995;fill:#6c757d;stroke-width:0.264999;paint-order:markers fill stroke;fill-opacity:1"
       id="path833"
       cx="-142.50493"
       cy="39.028442"
       transform="scale(-1,1)"
       rx="4.6055393"
       ry="4.592267" />
    <path
       style="fill:none;stroke:#6c757d;stroke-width:5;stroke-linecap:round;stroke-linejoin:round;stroke-miterlimit:4;stroke-dasharray:none;stroke-opacity:1"
       d="M 152.49678,33.797721 139.93232,29.84369 131.0259,39.074184"
       id="path835"
       sodipodi:nodetypes="ccc" />
    <path
       id="path921"
       style="fill:#6c757d;fill-opacity:1;stroke:none;stroke-width:0.264583px;stroke-linecap:butt;stroke-linejoin:miter;stroke-opacity:1"
       d="m 131.33072,35.694795 8.87805,8.98668 c -0.21349,0.07525 -0.4254,0.156931 -0.6309,0.267608 -0.51371,0.276665 -1.00673,0.645552 -1.49964,1.014439 -0.4929,0.368887 -0.98551,0.737774 -1.49921,1.014439 -0.25686,0.138333 -0.51919,0.253611 -0.78904,0.334305 -0.26986,0.08069 -0.54724,0.126804 -0.83529,0.126804 -0.28805,0 -0.56584,-0.04611 -0.8357,-0.126804 -0.26985,-0.08069 -0.53177,-0.195972 -0.78862,-0.334305 -0.51371,-0.276665 -1.00673,-0.645552 -1.49964,-1.014439 -0.4929,-0.368887 -0.98592,-0.737774 -1.49963,-1.014439 -0.25685,-0.138333 -0.51877,-0.253611 -0.78863,-0.334304 -0.26985,-0.08069 -0.54764,-0.126805 -0.83569,-0.126805 -0.28805,0 -0.56543,0.04611 -0.83529,0.126805 -0.26985,0.08069 -0.53219,0.195971 -0.78904,0.334304 -0.51371,0.276665 -1.00631,0.645552 -1.49922,1.014439 -0.49291,0.368887 -0.98592,0.737774 -1.49963,1.014439 -0.25685,0.138333 -0.51877,0.253611 -0.78863,0.334305 -0.26985,0.08069 -0.54764,0.126804 -0.8357,0.126804 -0.28805,0 -0.56584,-0.04611 -0.83569,-0.126804 -0.26986,-0.08069 -0.53178,-0.195972 -0.78863,-0.334305 -0.51371,-0.276665 -1.00672,-0.645552 -1.49963,-1.014439 -0.44918,-0.336157 -0.90177,-0.657907 -1.36668,-0.924277 z" />
    <path
       style="fill:none;stroke:#008080;stroke-width:1.365;stroke-linecap:butt;stroke-linejoin:miter;stroke-miterlimit:4;stroke-dasharray:none;stroke-opacity:1"
       d="m 157.8355,49.83307 c 0,0 -2.581,-2.683269 -4.28466,-2.80053 -2.29894,-0.158233 -3.94327,2.951096 -6.24768,2.951096 -2.30441,0 -3.94326,-2.951096 -6.24768,-2.951096 -2.30441,0 -3.94326,2.951096 -6.24768,2.951096 -2.30441,0 -3.94326,-2.951096 -6.24767,-2.951096 -2.30442,0 -3.94327,2.951096 -6.24768,2.951096 -2.30441,0 -3.94327,-2.951096 -6.24768,-2.951096"
       id="path856"
       sodipodi:nodetypes="caaaaaac" />
    <path
       style="fill:none;stroke:#008080;stroke-width:1.365;stroke-linecap:butt;stroke-linejoin:miter;stroke-miterlimit:4;stroke-dasharray:none;stroke-opacity:1"
       d="m 157.8355,52.784167 c 0,0 -2.581,-2.683268 -4.28466,-2.800529 -2.29894,-0.158233 -3.94327,2.951096 -6.24768,2.951096 -2.30441,0 -3.94326,-2.951096 -6.24768,-2.951096 -2.30441,0 -3.94326,2.951096 -6.24768,2.951096 -2.30441,0 -3.94326,-2.951096 -6.24767,-2.951096 -2.30442,0 -3.94327,2.951096 -6.24768,2.951096 -2.30441,0 -3.94327,-2.951096 -6.24768,-2.951096"
       id="path924"
       sodipodi:nodetypes="caaaaaac" />
    <text
       xml:space="preserve"
       id="text932"
       style="font-size:10.5833px;line-height:1.25;font-family:'Source Sans Pro';-inkscape-font-specification:'Source Sans Pro';white-space:pre;shape-inside:url(#rect934);fill:#333333;stroke-width:0.265908;"
       transform="matrix(3.7606918,0,0,3.7606918,-75.007149,-241.49686)"><tspan
         x="25.134766"
         y="78.240856"><tspan
           style="font-weight:bold;fill:#333333;stroke-width:0.265908">CRSC</tspan></tspan></text>
  </g>
</svg>
